<?xml version="1.0" encoding="UTF-8"?>
<svg xmlns="http://www.w3.org/2000/svg" xmlns:xlink="http://www.w3.org/1999/xlink" width="300pt" height="180pt" viewBox="0 0 300 180" version="1.1">
<defs>
<clipPath id="clip0">
  <rect width="300" height="180"/>
</clipPath>
</defs>
<g id="surface0" clip-path="url(#clip0)">
<path style="fill: none; stroke-width: 0.1; stroke-linecap: butt; stroke-linejoin: miter; stroke: rgb(3, 2, 0); opacity: 1; stroke-miterlimit: 10;" d="M 0 0 L 300 0 L 300 180 L 0 180 L 0 0 Z M 0 0 " transform="matrix(1, 0, 0, 1, 0, 0)"/>
<path style="stroke: none; fill-rule: nonzero; fill: rgb(3, 2, 0); opacity: 1;" d="M 0 0 L 300 0 L 300 180 L 0 180 L 0 0 Z M 0 0 "/>
<path style="fill: none; stroke-width: 0.1; stroke-linecap: butt; stroke-linejoin: miter; stroke: rgb(21, 68, 92); opacity: 1; stroke-miterlimit: 10;" d="M 2.182602 25.947266 C 2.220886 18.297318 1.941711 10.634323 2.576477 3.000046 C 2.960205 42.334381 2.633255 81.676529 2.742462 121.014084 C 2.681702 139.668274 2.866714 158.323914 2.639801 176.977356 C 2.38205 173.987473 2.18042 170.991486 2.162491 167.991913 C 2.20491 120.643768 2.167679 73.295486 2.182602 25.947266 Z M 2.182602 25.947266 " transform="matrix(1, 0, 0, 1, 0, 0)"/>
<path style="stroke: none; fill-rule: nonzero; fill: rgb(21, 68, 92); opacity: 1;" d="M 2.182602 25.947266 C 2.220886 18.297318 1.941711 10.634323 2.576477 3.000046 C 2.960205 42.334381 2.633255 81.676529 2.742462 121.014084 C 2.681702 139.668274 2.866714 158.323914 2.639801 176.977356 C 2.38205 173.987473 2.18042 170.991486 2.162491 167.991913 C 2.20491 120.643768 2.167679 73.295486 2.182602 25.947266 Z M 2.182602 25.947266 "/>
<path style="fill: none; stroke-width: 0.1; stroke-linecap: butt; stroke-linejoin: miter; stroke: rgb(0, 123, 215); opacity: 1; stroke-miterlimit: 10;" d="M 2.576477 3.000046 C 100.536362 3.053024 198.496704 3.047287 296.45668 3.002899 C 295.995377 37.994568 296.390259 72.997604 296.258209 107.993896 C 296.418457 130.988312 295.930481 153.993408 296.510269 176.980774 C 198.55336 176.959366 100.596649 176.966187 2.639801 176.977356 C 2.866714 158.323914 2.681702 139.668274 2.742462 121.014084 C 2.633255 81.676529 2.960205 42.334381 2.576477 3.000046 Z M 2.576477 3.000046 " transform="matrix(1, 0, 0, 1, 0, 0)"/>
<path style="stroke: none; fill-rule: nonzero; fill: rgb(0, 123, 215); opacity: 1;" d="M 2.576477 3.000046 C 100.536362 3.053024 198.496704 3.047287 296.45668 3.002899 C 295.995377 37.994568 296.390259 72.997604 296.258209 107.993896 C 296.418457 130.988312 295.930481 153.993408 296.510269 176.980774 C 198.55336 176.959366 100.596649 176.966187 2.639801 176.977356 C 2.866714 158.323914 2.681702 139.668274 2.742462 121.014084 C 2.633255 81.676529 2.960205 42.334381 2.576477 3.000046 Z M 2.576477 3.000046 "/>
<path style="fill: none; stroke-width: 0.1; stroke-linecap: butt; stroke-linejoin: miter; stroke: rgb(21, 68, 92); opacity: 1; stroke-miterlimit: 10;" d="M 296.45668 3.002899 C 297.004059 9.657776 296.81575 16.337646 296.816589 23.006592 C 296.819183 67.341553 296.818893 111.676331 296.817474 156.011398 C 296.801514 163.00119 297.006943 170.000519 296.510269 176.980774 C 295.930481 153.993408 296.418457 130.988312 296.258209 107.993896 C 296.390259 72.997604 295.995377 37.994568 296.45668 3.002899 Z M 296.45668 3.002899 " transform="matrix(1, 0, 0, 1, 0, 0)"/>
<path style="stroke: none; fill-rule: nonzero; fill: rgb(21, 68, 92); opacity: 1;" d="M 296.45668 3.002899 C 297.004059 9.657776 296.81575 16.337646 296.816589 23.006592 C 296.819183 67.341553 296.818893 111.676331 296.817474 156.011398 C 296.801514 163.00119 297.006943 170.000519 296.510269 176.980774 C 295.930481 153.993408 296.418457 130.988312 296.258209 107.993896 C 296.390259 72.997604 295.995377 37.994568 296.45668 3.002899 Z M 296.45668 3.002899 "/>
<path style="fill: none; stroke-width: 0.1; stroke-linecap: butt; stroke-linejoin: miter; stroke: rgb(21, 68, 92); opacity: 1; stroke-miterlimit: 10;" d="M 4.251663 12.985291 C 4.278488 10.307632 4.383896 7.631729 4.531586 4.958359 C 5.000458 12.967529 4.793823 20.991379 4.813751 29.008652 C 4.825333 71.012436 4.814377 113.016037 4.819016 155.019913 C 4.850174 161.694244 4.916138 168.373657 4.531372 175.041565 C 4.095062 168.020935 4.276703 160.985703 4.260452 153.957993 C 4.25206 106.966995 4.268219 59.976044 4.251663 12.985291 Z M 4.251663 12.985291 " transform="matrix(1, 0, 0, 1, 0, 0)"/>
<path style="stroke: none; fill-rule: nonzero; fill: rgb(21, 68, 92); opacity: 1;" d="M 4.251663 12.985291 C 4.278488 10.307632 4.383896 7.631729 4.531586 4.958359 C 5.000458 12.967529 4.793823 20.991379 4.813751 29.008652 C 4.825333 71.012436 4.814377 113.016037 4.819016 155.019913 C 4.850174 161.694244 4.916138 168.373657 4.531372 175.041565 C 4.095062 168.020935 4.276703 160.985703 4.260452 153.957993 C 4.25206 106.966995 4.268219 59.976044 4.251663 12.985291 Z M 4.251663 12.985291 "/>
<path style="fill: none; stroke-width: 0.1; stroke-linecap: butt; stroke-linejoin: miter; stroke: rgb(3, 2, 0); opacity: 1; stroke-miterlimit: 10;" d="M 4.531586 4.958359 C 101.177383 4.976852 197.823059 4.976151 294.468918 4.95871 C 293.998627 12.969131 294.204803 20.994278 294.18512 29.012848 C 294.165466 76.335236 294.207001 123.658951 294.163239 170.980438 C 294.201385 172.378265 294.264175 173.777313 294.351608 175.177582 C 265.582031 174.835602 236.803375 175.127625 208.030487 175.030685 C 140.197342 175.037872 72.364426 175.016144 4.531372 175.041565 C 4.916138 168.373657 4.850174 161.694244 4.819016 155.019913 C 4.814377 113.016037 4.825333 71.012436 4.813751 29.008652 C 4.793823 20.991379 5.000458 12.967529 4.531586 4.958359 Z M 4.531586 4.958359 " transform="matrix(1, 0, 0, 1, 0, 0)"/>
<path style="stroke: none; fill-rule: nonzero; fill: rgb(3, 2, 0); opacity: 1;" d="M 4.531586 4.958359 C 101.177383 4.976852 197.823059 4.976151 294.468918 4.95871 C 293.998627 12.969131 294.204803 20.994278 294.18512 29.012848 C 294.165466 76.335236 294.207001 123.658951 294.163239 170.980438 C 294.201385 172.378265 294.264175 173.777313 294.351608 175.177582 C 265.582031 174.835602 236.803375 175.127625 208.030487 175.030685 C 140.197342 175.037872 72.364426 175.016144 4.531372 175.041565 C 4.916138 168.373657 4.850174 161.694244 4.819016 155.019913 C 4.814377 113.016037 4.825333 71.012436 4.813751 29.008652 C 4.793823 20.991379 5.000458 12.967529 4.531586 4.958359 Z M 4.531586 4.958359 "/>
<path style="fill: none; stroke-width: 0.1; stroke-linecap: butt; stroke-linejoin: miter; stroke: rgb(21, 68, 92); opacity: 1; stroke-miterlimit: 10;" d="M 294.468918 4.95871 C 294.633713 7.978043 294.741211 11.000793 294.757919 14.02504 C 294.714279 63.672668 294.76329 113.320435 294.732285 162.968155 C 294.755096 167.038147 295.075333 171.142685 294.351608 175.177582 C 294.264175 173.777313 294.201385 172.378265 294.163239 170.980438 C 294.207001 123.658951 294.165466 76.335236 294.18512 29.012848 C 294.204803 20.994278 293.998627 12.969131 294.468918 4.95871 Z M 294.468918 4.95871 " transform="matrix(1, 0, 0, 1, 0, 0)"/>
<path style="stroke: none; fill-rule: nonzero; fill: rgb(21, 68, 92); opacity: 1;" d="M 294.468918 4.95871 C 294.633713 7.978043 294.741211 11.000793 294.757919 14.02504 C 294.714279 63.672668 294.76329 113.320435 294.732285 162.968155 C 294.755096 167.038147 295.075333 171.142685 294.351608 175.177582 C 294.264175 173.777313 294.201385 172.378265 294.163239 170.980438 C 294.207001 123.658951 294.165466 76.335236 294.18512 29.012848 C 294.204803 20.994278 293.998627 12.969131 294.468918 4.95871 Z M 294.468918 4.95871 "/>
<path style="fill: none; stroke-width: 0.1; stroke-linecap: butt; stroke-linejoin: miter; stroke: rgb(6, 104, 176); opacity: 1; stroke-miterlimit: 10;" d="M 237.788452 22.892227 C 240.325806 23.233902 242.853378 23.665649 245.362167 24.193359 C 248.049332 25.883652 250.95108 27.192398 253.683609 28.80864 C 254.100754 28.917511 254.935028 29.135223 255.352173 29.24408 C 256.655762 29.648209 257.975876 30.029892 259.289764 30.423401 C 261.293549 31.050491 263.373337 31.374619 265.464569 31.567764 C 266.975739 31.773788 268.490982 31.962601 270.011581 32.146637 C 272.788162 34.729843 275.705093 37.342285 277.274368 40.883118 C 280.537231 46.094727 277.94754 52.44368 279.688873 58.062027 C 280.507492 63.507996 281.879944 69.687164 279.155716 74.789505 C 279.121475 78.920822 279.439682 83.438736 276.234482 86.595627 C 273.579529 96.570099 276.190994 106.979355 274.272324 117.044586 C 273.973038 122.653458 273.484406 128.335953 271.505096 133.64473 C 270.38147 136.370514 268.335526 139.009155 265.312744 139.671127 C 262.054413 140.619324 258.748993 141.971268 255.289902 141.468445 C 252.65152 141.325623 250.140579 142.346497 247.660614 143.087524 C 250.417511 139.045303 250.74791 134.171616 249.927643 129.472488 C 251.279343 128.812668 252.628433 128.138092 253.969772 127.448685 C 252.040787 124.297745 249.865067 120.95372 249.945969 117.113907 C 249.943329 111.621689 251.495605 106.223984 250.953506 100.705292 C 248.754257 96.658707 247.155212 92.286667 246.586853 87.700974 C 245.768585 84.118912 246.041245 80.426865 245.78746 76.7901 C 244.941223 72.614731 245.56308 68.288422 244.794586 64.076233 C 244.967117 55.135742 243.982971 45.911041 246.805435 37.263748 C 246.918823 35.546204 247.001205 33.827179 247.083923 32.10849 C 243.815079 29.213974 240.529633 26.3078 237.788452 22.892227 Z M 237.788452 22.892227 " transform="matrix(1, 0, 0, 1, 0, 0)"/>
<path style="stroke: none; fill-rule: nonzero; fill: rgb(6, 104, 176); opacity: 1;" d="M 237.788452 22.892227 C 240.325806 23.233902 242.853378 23.665649 245.362167 24.193359 C 248.049332 25.883652 250.95108 27.192398 253.683609 28.80864 C 254.100754 28.917511 254.935028 29.135223 255.352173 29.24408 C 256.655762 29.648209 257.975876 30.029892 259.289764 30.423401 C 261.293549 31.050491 263.373337 31.374619 265.464569 31.567764 C 266.975739 31.773788 268.490982 31.962601 270.011581 32.146637 C 272.788162 34.729843 275.705093 37.342285 277.274368 40.883118 C 280.537231 46.094727 277.94754 52.44368 279.688873 58.062027 C 280.507492 63.507996 281.879944 69.687164 279.155716 74.789505 C 279.121475 78.920822 279.439682 83.438736 276.234482 86.595627 C 273.579529 96.570099 276.190994 106.979355 274.272324 117.044586 C 273.973038 122.653458 273.484406 128.335953 271.505096 133.64473 C 270.38147 136.370514 268.335526 139.009155 265.312744 139.671127 C 262.054413 140.619324 258.748993 141.971268 255.289902 141.468445 C 252.65152 141.325623 250.140579 142.346497 247.660614 143.087524 C 250.417511 139.045303 250.74791 134.171616 249.927643 129.472488 C 251.279343 128.812668 252.628433 128.138092 253.969772 127.448685 C 252.040787 124.297745 249.865067 120.95372 249.945969 117.113907 C 249.943329 111.621689 251.495605 106.223984 250.953506 100.705292 C 248.754257 96.658707 247.155212 92.286667 246.586853 87.700974 C 245.768585 84.118912 246.041245 80.426865 245.78746 76.7901 C 244.941223 72.614731 245.56308 68.288422 244.794586 64.076233 C 244.967117 55.135742 243.982971 45.911041 246.805435 37.263748 C 246.918823 35.546204 247.001205 33.827179 247.083923 32.10849 C 243.815079 29.213974 240.529633 26.3078 237.788452 22.892227 Z M 237.788452 22.892227 "/>
<path style="fill: none; stroke-width: 0.1; stroke-linecap: butt; stroke-linejoin: miter; stroke: rgb(6, 104, 176); opacity: 1; stroke-miterlimit: 10;" d="M 280.27742 23.946274 C 281.855896 23.966568 283.436905 23.979202 285.023087 23.989105 C 286.022522 25.152832 287.011658 26.324402 288.009216 27.495544 C 288.015457 28.84079 288.025482 30.186172 288.041397 31.532196 C 287.030716 32.707947 286.026077 33.882629 285.000366 35.040588 C 283.428589 35.0448 281.861588 35.055862 280.29744 35.080826 C 278.969055 33.557922 277.098221 32.118347 276.961548 29.93544 C 276.589447 27.400299 278.940308 25.757874 280.27742 23.946274 Z M 280.27742 23.946274 " transform="matrix(1, 0, 0, 1, 0, 0)"/>
<path style="stroke: none; fill-rule: nonzero; fill: rgb(6, 104, 176); opacity: 1;" d="M 280.27742 23.946274 C 281.855896 23.966568 283.436905 23.979202 285.023087 23.989105 C 286.022522 25.152832 287.011658 26.324402 288.009216 27.495544 C 288.015457 28.84079 288.025482 30.186172 288.041397 31.532196 C 287.030716 32.707947 286.026077 33.882629 285.000366 35.040588 C 283.428589 35.0448 281.861588 35.055862 280.29744 35.080826 C 278.969055 33.557922 277.098221 32.118347 276.961548 29.93544 C 276.589447 27.400299 278.940308 25.757874 280.27742 23.946274 Z M 280.27742 23.946274 "/>
<path style="fill: none; stroke-width: 0.1; stroke-linecap: butt; stroke-linejoin: miter; stroke: rgb(6, 104, 176); opacity: 1; stroke-miterlimit: 10;" d="M 60.061813 24.548859 C 60.982452 25.126389 61.898148 25.712967 62.808914 26.308594 C 65.046173 26.353806 67.284698 26.384689 69.523682 26.408173 C 73.009476 27.928558 75.80072 30.47876 78.048706 33.506989 C 78.194138 37.174423 77.789474 40.816345 77.299454 44.440384 C 77.751617 45.023163 78.65593 46.188736 79.108093 46.77153 C 78.935425 48.458191 78.689377 50.141129 78.211075 51.772827 C 77.759415 58.517807 78.106003 65.283371 77.9944 72.03775 C 78.660004 72.697281 79.327286 73.356964 79.996231 74.016785 C 80.835327 81.20993 80.388 88.517563 79.449158 95.67485 C 78.314514 99.970978 79.962875 104.261093 80.043854 108.572403 C 79.360397 109.735321 77.945877 110.773788 78.37915 112.292511 C 78.768768 114.995941 78.156876 117.682068 77.664215 120.327271 C 77.078278 124.487366 75.736771 128.804184 77.011322 132.960999 C 80.968079 133.642075 85.386475 134.024063 88.295212 130.633499 C 91.8591 131.899185 95.628204 132.203812 99.385361 132.021957 C 100.436874 131.369919 101.491348 130.722305 102.548767 130.079117 C 113.060287 128.922592 123.635452 129.936447 134.172623 129.549149 C 135.030624 134.695221 133.210571 140.344086 135.964218 145.063919 C 130.389359 144.940247 124.60791 145.600281 119.348587 143.303757 C 118.933289 143.11821 118.102676 142.747086 117.687363 142.561539 C 114.09642 141.793015 110.409027 142.023544 106.768906 141.801254 C 98.782822 139.612671 90.397308 141.260086 82.272491 140.419647 C 79.445053 139.5923 76.579453 138.876312 73.611191 138.860992 C 71.572678 140.597565 69.475113 142.26297 67.427032 143.988739 C 64.187134 143.999039 60.947754 144.003937 57.708725 143.998856 C 58.176056 143.149521 58.64624 142.303314 59.119278 141.460205 C 61.077286 140.259003 62.964127 138.948807 64.870209 137.668869 C 66.238678 131.327774 63.944687 124.827637 66.296356 118.624451 C 66.618484 117.449356 66.929443 116.272476 67.229233 115.093811 C 66.482437 114.372391 65.736969 113.651779 64.992813 112.931992 C 64.983871 109.211136 64.907349 105.484344 65.212555 101.773117 C 66.436203 98.362656 65.555923 94.62413 66.795563 91.219177 C 67.00737 87.6194 66.804688 83.969666 67.647949 80.434998 C 68.21167 78.598831 67.386368 76.78566 67.179703 74.967026 C 66.430725 70.083496 67.887741 64.984222 66.206985 60.229965 C 66.040588 57.960785 65.98671 55.686417 65.941772 53.41333 C 66.465454 52.963394 67.512802 52.063507 68.036469 51.613556 C 68.236938 48.716354 68.227448 45.792389 67.500717 42.961899 C 69.507126 39.373306 68.604355 35.369064 66.535675 32.02919 C 66.039383 32.008194 65.046829 31.966202 64.550537 31.945206 C 63.113281 30.35881 61.624344 28.819916 60.051193 27.368774 C 60.053848 26.663803 60.059158 25.253845 60.061813 24.548859 Z M 60.061813 24.548859 " transform="matrix(1, 0, 0, 1, 0, 0)"/>
<path style="stroke: none; fill-rule: nonzero; fill: rgb(6, 104, 176); opacity: 1;" d="M 60.061813 24.548859 C 60.982452 25.126389 61.898148 25.712967 62.808914 26.308594 C 65.046173 26.353806 67.284698 26.384689 69.523682 26.408173 C 73.009476 27.928558 75.80072 30.47876 78.048706 33.506989 C 78.194138 37.174423 77.789474 40.816345 77.299454 44.440384 C 77.751617 45.023163 78.65593 46.188736 79.108093 46.77153 C 78.935425 48.458191 78.689377 50.141129 78.211075 51.772827 C 77.759415 58.517807 78.106003 65.283371 77.9944 72.03775 C 78.660004 72.697281 79.327286 73.356964 79.996231 74.016785 C 80.835327 81.20993 80.388 88.517563 79.449158 95.67485 C 78.314514 99.970978 79.962875 104.261093 80.043854 108.572403 C 79.360397 109.735321 77.945877 110.773788 78.37915 112.292511 C 78.768768 114.995941 78.156876 117.682068 77.664215 120.327271 C 77.078278 124.487366 75.736771 128.804184 77.011322 132.960999 C 80.968079 133.642075 85.386475 134.024063 88.295212 130.633499 C 91.8591 131.899185 95.628204 132.203812 99.385361 132.021957 C 100.436874 131.369919 101.491348 130.722305 102.548767 130.079117 C 113.060287 128.922592 123.635452 129.936447 134.172623 129.549149 C 135.030624 134.695221 133.210571 140.344086 135.964218 145.063919 C 130.389359 144.940247 124.60791 145.600281 119.348587 143.303757 C 118.933289 143.11821 118.102676 142.747086 117.687363 142.561539 C 114.09642 141.793015 110.409027 142.023544 106.768906 141.801254 C 98.782822 139.612671 90.397308 141.260086 82.272491 140.419647 C 79.445053 139.5923 76.579453 138.876312 73.611191 138.860992 C 71.572678 140.597565 69.475113 142.26297 67.427032 143.988739 C 64.187134 143.999039 60.947754 144.003937 57.708725 143.998856 C 58.176056 143.149521 58.64624 142.303314 59.119278 141.460205 C 61.077286 140.259003 62.964127 138.948807 64.870209 137.668869 C 66.238678 131.327774 63.944687 124.827637 66.296356 118.624451 C 66.618484 117.449356 66.929443 116.272476 67.229233 115.093811 C 66.482437 114.372391 65.736969 113.651779 64.992813 112.931992 C 64.983871 109.211136 64.907349 105.484344 65.212555 101.773117 C 66.436203 98.362656 65.555923 94.62413 66.795563 91.219177 C 67.00737 87.6194 66.804688 83.969666 67.647949 80.434998 C 68.21167 78.598831 67.386368 76.78566 67.179703 74.967026 C 66.430725 70.083496 67.887741 64.984222 66.206985 60.229965 C 66.040588 57.960785 65.98671 55.686417 65.941772 53.41333 C 66.465454 52.963394 67.512802 52.063507 68.036469 51.613556 C 68.236938 48.716354 68.227448 45.792389 67.500717 42.961899 C 69.507126 39.373306 68.604355 35.369064 66.535675 32.02919 C 66.039383 32.008194 65.046829 31.966202 64.550537 31.945206 C 63.113281 30.35881 61.624344 28.819916 60.051193 27.368774 C 60.053848 26.663803 60.059158 25.253845 60.061813 24.548859 Z M 60.061813 24.548859 "/>
<path style="fill: none; stroke-width: 0.1; stroke-linecap: butt; stroke-linejoin: miter; stroke: rgb(6, 104, 176); opacity: 1; stroke-miterlimit: 10;" d="M 210.740295 25.532867 C 216.927765 25.223557 222.640274 27.870285 228.600632 29.034332 C 234.606659 30.712555 236.847748 37.029373 239.002106 42.200211 C 240.437408 45.476212 239.331726 49.082413 238.36554 52.318466 C 238.278885 54.345978 238.139755 56.371002 237.986526 58.395233 C 235.791153 62.995331 232.764938 68.171066 227.000015 68.361954 C 226.996872 69.574112 226.996902 70.787201 227.000076 72.001236 C 228.191162 71.994843 229.385162 71.989426 230.582031 71.985031 C 231.95195 73.444138 233.332092 74.896194 234.720963 76.342133 C 237.72876 80.611053 238.183945 85.844177 238.20314 90.907623 C 238.148666 95.263931 241.700348 98.565445 241.922577 102.864502 C 242.635666 106.256378 241.434967 109.967361 243.069046 113.144684 C 244.827377 116.484024 244.012787 120.389008 244.12706 124.000015 C 244.278549 130.134109 242.255035 136.020905 241.66098 142.085953 C 236.201355 140.398254 233.001038 134.090866 226.736557 134.729065 C 227.837082 131.154572 229.406097 127.728027 230.279175 124.085968 C 231.426682 117.640991 231.171524 110.997559 229.738937 104.618866 C 228.970016 100.796875 227.663605 97.129959 225.969955 93.626175 C 225.588806 91.003967 226.015289 88.319092 226.00589 85.674698 C 224.294952 82.792709 222.530884 79.92128 220.243561 77.453247 C 219.32045 80.894333 217.348419 84.200134 217.743088 87.873962 C 218.035309 95.87056 219.992142 103.766205 219.714401 111.777176 C 220.707504 117.158447 219.33223 122.584854 219.984619 127.988098 C 220.539841 133.0569 219.657959 138.113388 218.666595 143.069916 C 216.806076 136.344666 211.391159 131.671082 205.703903 128.113815 C 206.517029 121.953857 209.846161 116.521423 210.850754 110.427353 C 210.384674 109.947983 209.452499 108.989212 208.98642 108.509827 C 208.619614 98.678925 209.731216 88.803268 208.836563 79.011215 C 206.602875 71.390717 206.519318 63.3936 205.204742 55.611038 C 203.51004 52.013947 203.047058 48.111526 203.248337 44.168259 C 206.622589 41.12999 210.309204 38.44162 213.43074 35.124817 C 211.246414 34.274643 208.914841 33.696869 206.728363 34.910629 C 205.137894 30.697021 201.297073 28.223663 197.648956 25.957581 C 202.015594 26.106812 206.398605 26.100723 210.740295 25.532867 Z M 210.740295 25.532867 " transform="matrix(1, 0, 0, 1, 0, 0)"/>
<path style="stroke: none; fill-rule: nonzero; fill: rgb(6, 104, 176); opacity: 1;" d="M 210.740295 25.532867 C 216.927765 25.223557 222.640274 27.870285 228.600632 29.034332 C 234.606659 30.712555 236.847748 37.029373 239.002106 42.200211 C 240.437408 45.476212 239.331726 49.082413 238.36554 52.318466 C 238.278885 54.345978 238.139755 56.371002 237.986526 58.395233 C 235.791153 62.995331 232.764938 68.171066 227.000015 68.361954 C 226.996872 69.574112 226.996902 70.787201 227.000076 72.001236 C 228.191162 71.994843 229.385162 71.989426 230.582031 71.985031 C 231.95195 73.444138 233.332092 74.896194 234.720963 76.342133 C 237.72876 80.611053 238.183945 85.844177 238.20314 90.907623 C 238.148666 95.263931 241.700348 98.565445 241.922577 102.864502 C 242.635666 106.256378 241.434967 109.967361 243.069046 113.144684 C 244.827377 116.484024 244.012787 120.389008 244.12706 124.000015 C 244.278549 130.134109 242.255035 136.020905 241.66098 142.085953 C 236.201355 140.398254 233.001038 134.090866 226.736557 134.729065 C 227.837082 131.154572 229.406097 127.728027 230.279175 124.085968 C 231.426682 117.640991 231.171524 110.997559 229.738937 104.618866 C 228.970016 100.796875 227.663605 97.129959 225.969955 93.626175 C 225.588806 91.003967 226.015289 88.319092 226.00589 85.674698 C 224.294952 82.792709 222.530884 79.92128 220.243561 77.453247 C 219.32045 80.894333 217.348419 84.200134 217.743088 87.873962 C 218.035309 95.87056 219.992142 103.766205 219.714401 111.777176 C 220.707504 117.158447 219.33223 122.584854 219.984619 127.988098 C 220.539841 133.0569 219.657959 138.113388 218.666595 143.069916 C 216.806076 136.344666 211.391159 131.671082 205.703903 128.113815 C 206.517029 121.953857 209.846161 116.521423 210.850754 110.427353 C 210.384674 109.947983 209.452499 108.989212 208.98642 108.509827 C 208.619614 98.678925 209.731216 88.803268 208.836563 79.011215 C 206.602875 71.390717 206.519318 63.3936 205.204742 55.611038 C 203.51004 52.013947 203.047058 48.111526 203.248337 44.168259 C 206.622589 41.12999 210.309204 38.44162 213.43074 35.124817 C 211.246414 34.274643 208.914841 33.696869 206.728363 34.910629 C 205.137894 30.697021 201.297073 28.223663 197.648956 25.957581 C 202.015594 26.106812 206.398605 26.100723 210.740295 25.532867 Z M 210.740295 25.532867 "/>
<path style="fill: none; stroke-width: 0.1; stroke-linecap: butt; stroke-linejoin: miter; stroke: rgb(3, 2, 0); opacity: 1; stroke-miterlimit: 10;" d="M 278.493866 27.537369 C 279.781937 24.049072 285.345062 24.151108 286.642456 27.5858 C 287.425278 29.223419 287.148605 32.285858 285.168823 32.839706 C 284.103455 31.447891 284.27565 29.629791 284.193497 27.985519 C 283.774231 27.37468 282.935684 26.153 282.516403 25.54216 C 282.629333 26.416672 282.855179 28.165695 282.968094 29.040192 C 282.561111 29.024277 281.747131 28.992447 281.340134 28.976532 L 281.3405 25.731644 C 280.340561 27.685486 279.973282 29.828033 279.743607 31.984573 L 281.240509 32.002014 C 281.325699 31.36235 281.496078 30.083023 281.581268 29.443359 C 282.51152 30.806412 284.115662 31.966568 284.042328 33.766678 C 283.241455 33.873032 281.639694 34.085709 280.838821 34.192047 C 279.375397 32.321304 276.79007 30.091171 278.493866 27.537369 Z M 278.493866 27.537369 " transform="matrix(1, 0, 0, 1, 0, 0)"/>
<path style="stroke: none; fill-rule: nonzero; fill: rgb(3, 2, 0); opacity: 1;" d="M 278.493866 27.537369 C 279.781937 24.049072 285.345062 24.151108 286.642456 27.5858 C 287.425278 29.223419 287.148605 32.285858 285.168823 32.839706 C 284.103455 31.447891 284.27565 29.629791 284.193497 27.985519 C 283.774231 27.37468 282.935684 26.153 282.516403 25.54216 C 282.629333 26.416672 282.855179 28.165695 282.968094 29.040192 C 282.561111 29.024277 281.747131 28.992447 281.340134 28.976532 L 281.3405 25.731644 C 280.340561 27.685486 279.973282 29.828033 279.743607 31.984573 L 281.240509 32.002014 C 281.325699 31.36235 281.496078 30.083023 281.581268 29.443359 C 282.51152 30.806412 284.115662 31.966568 284.042328 33.766678 C 283.241455 33.873032 281.639694 34.085709 280.838821 34.192047 C 279.375397 32.321304 276.79007 30.091171 278.493866 27.537369 Z M 278.493866 27.537369 "/>
<path style="fill: none; stroke-width: 0.1; stroke-linecap: butt; stroke-linejoin: miter; stroke: rgb(6, 104, 176); opacity: 1; stroke-miterlimit: 10;" d="M 185.182327 27.101517 C 184.924576 24.681442 187.847397 26.312515 188.828613 26.996246 C 188.857941 32.61261 194.043274 36.580795 193.206604 42.342087 C 196.728912 51.918304 199.057251 61.838257 201.648788 71.690018 C 202.441193 75.674652 201.662354 79.808487 202.644135 83.781006 C 204.350449 91.770355 204.090439 99.959702 203.974396 108.075424 C 203.723999 115.214951 198.165909 121.074249 198.446686 128.298157 C 197.840118 130.248108 197.249313 132.203262 196.688538 134.168213 C 196.472473 134.538162 196.040329 135.278061 195.824265 135.64801 C 195.74147 139.127655 194.983948 142.545197 194.036789 145.881897 C 193.545227 145.600784 192.562103 145.038544 192.070541 144.757416 C 192.654312 138.680588 189.610748 133.199707 189.066162 127.254028 C 187.859543 124.793579 185.879196 122.818817 184.308212 120.594315 C 187.67247 115.589615 190.490158 110.136719 191.277237 104.079575 C 186.939209 100.586853 181.993149 97.961197 177.016144 95.51236 C 177.137344 98.355499 177.281631 101.200317 177.234268 104.048737 C 178.449509 105.170563 179.673904 106.286209 180.894409 107.407928 C 180.111679 108.117447 179.331726 108.828766 178.554535 109.541901 C 176.441544 109.370667 174.327698 109.251129 172.216812 109.11467 C 168.567047 110.430557 164.901489 111.704193 161.308411 113.168335 C 160.91481 111.996017 160.5186 110.826553 160.119751 109.659943 C 161.391724 108.241837 162.686523 106.844574 163.997238 105.461472 C 163.98465 104.4048 163.973892 103.349457 163.964966 102.29541 C 165.208054 101.374176 166.457825 100.46022 167.713669 99.55365 C 167.339096 98.981583 166.9673 98.410721 166.598282 97.84108 C 167.053329 92.295044 167.521408 86.733521 169.286438 81.413681 C 169.030014 81.052551 168.517151 80.330322 168.260727 79.969208 C 168.37851 78.201859 168.442108 76.431488 168.493683 74.662628 C 170.028687 71.750626 171.191101 68.657867 171.76976 65.409653 C 172.039627 65.069122 172.579391 64.388062 172.849258 64.047531 C 172.919373 59.174393 173.926102 54.237137 176.909439 50.269333 C 176.851379 49.778442 176.735245 48.796677 176.677185 48.305786 C 178.309738 43.261139 182.317764 39.002975 182.205856 33.488449 C 184.244171 31.88269 185.48082 29.758698 185.182327 27.101517 Z M 185.182327 27.101517 " transform="matrix(1, 0, 0, 1, 0, 0)"/>
<path style="stroke: none; fill-rule: nonzero; fill: rgb(6, 104, 176); opacity: 1;" d="M 185.182327 27.101517 C 184.924576 24.681442 187.847397 26.312515 188.828613 26.996246 C 188.857941 32.61261 194.043274 36.580795 193.206604 42.342087 C 196.728912 51.918304 199.057251 61.838257 201.648788 71.690018 C 202.441193 75.674652 201.662354 79.808487 202.644135 83.781006 C 204.350449 91.770355 204.090439 99.959702 203.974396 108.075424 C 203.723999 115.214951 198.165909 121.074249 198.446686 128.298157 C 197.840118 130.248108 197.249313 132.203262 196.688538 134.168213 C 196.472473 134.538162 196.040329 135.278061 195.824265 135.64801 C 195.74147 139.127655 194.983948 142.545197 194.036789 145.881897 C 193.545227 145.600784 192.562103 145.038544 192.070541 144.757416 C 192.654312 138.680588 189.610748 133.199707 189.066162 127.254028 C 187.859543 124.793579 185.879196 122.818817 184.308212 120.594315 C 187.67247 115.589615 190.490158 110.136719 191.277237 104.079575 C 186.939209 100.586853 181.993149 97.961197 177.016144 95.51236 C 177.137344 98.355499 177.281631 101.200317 177.234268 104.048737 C 178.449509 105.170563 179.673904 106.286209 180.894409 107.407928 C 180.111679 108.117447 179.331726 108.828766 178.554535 109.541901 C 176.441544 109.370667 174.327698 109.251129 172.216812 109.11467 C 168.567047 110.430557 164.901489 111.704193 161.308411 113.168335 C 160.91481 111.996017 160.5186 110.826553 160.119751 109.659943 C 161.391724 108.241837 162.686523 106.844574 163.997238 105.461472 C 163.98465 104.4048 163.973892 103.349457 163.964966 102.29541 C 165.208054 101.374176 166.457825 100.46022 167.713669 99.55365 C 167.339096 98.981583 166.9673 98.410721 166.598282 97.84108 C 167.053329 92.295044 167.521408 86.733521 169.286438 81.413681 C 169.030014 81.052551 168.517151 80.330322 168.260727 79.969208 C 168.37851 78.201859 168.442108 76.431488 168.493683 74.662628 C 170.028687 71.750626 171.191101 68.657867 171.76976 65.409653 C 172.039627 65.069122 172.579391 64.388062 172.849258 64.047531 C 172.919373 59.174393 173.926102 54.237137 176.909439 50.269333 C 176.851379 49.778442 176.735245 48.796677 176.677185 48.305786 C 178.309738 43.261139 182.317764 39.002975 182.205856 33.488449 C 184.244171 31.88269 185.48082 29.758698 185.182327 27.101517 Z M 185.182327 27.101517 "/>
<path style="fill: none; stroke-width: 0.1; stroke-linecap: butt; stroke-linejoin: miter; stroke: rgb(6, 104, 176); opacity: 1; stroke-miterlimit: 10;" d="M 15.980408 28.097961 C 21.009872 28.11496 25.943115 26.889572 30.973343 26.970215 C 36.232849 27.013992 41.494217 26.931915 46.752426 27.097977 C 48.292435 28.817093 50.361938 29.795471 52.477264 30.610107 C 55.447678 31.769623 56.458801 35.074646 57.941391 37.597397 C 57.980286 39.806427 58.040115 42.01622 58.200806 44.221069 C 59.762817 46.937134 58.662582 49.86908 57.204865 52.328995 C 54.80806 56.83374 52.390717 61.446442 48.575012 64.940872 C 49.655624 67.075867 52.034698 67.584396 54.101944 68.317001 C 53.814301 69.705765 53.417175 71.076874 53.250229 72.489349 C 54.456711 73.854752 55.948166 75.000519 56.853058 76.612335 C 56.642212 81.314819 55.424286 86.520401 58.916946 90.421921 C 58.434586 97.059326 60.664032 104.023727 57.861221 110.339264 C 58.001205 114.370102 58.605057 118.710327 56.434723 122.355515 C 54.471252 125.696075 52.555725 129.218674 52.898285 133.247879 C 48.755417 135.868851 44.360626 138.216339 41.053741 141.932709 C 39.916931 141.978226 38.78064 142.025497 37.644882 142.074524 C 36.528671 142.642593 35.408813 143.20668 34.289291 143.770294 C 33.907516 143.234329 33.143997 142.162399 32.762222 141.626419 C 31.765457 142.39032 30.777313 143.166962 29.792267 143.948395 C 25.05452 143.694611 20.013123 144.934875 15.5112 143.030823 C 20.200302 141.052856 20.240402 135.462463 20.91153 131.143539 C 21.022339 123.801132 21.418182 116.393356 20.269836 109.108429 C 19.566895 102.347031 20.252975 95.546509 20.155838 88.768936 C 20.813904 88.177139 21.473007 87.587326 22.133163 86.999481 C 21.690979 82.262817 20.498093 77.549347 21.179794 72.768005 C 22.95874 69.29483 20.841995 65.621597 20.990295 62.011124 C 21.027069 55.25853 20.842865 48.497574 21.178802 41.750595 C 21.615219 40.199249 21.971237 38.628128 22.317291 37.055511 C 21.600983 37.040039 20.168381 37.009064 19.452072 36.993576 C 18.017654 35.535126 16.576462 34.084152 15.129013 32.63945 C 14.979172 32.027145 14.679474 30.802505 14.529617 30.190186 C 14.892319 29.66713 15.617706 28.621017 15.980408 28.097961 Z M 15.980408 28.097961 " transform="matrix(1, 0, 0, 1, 0, 0)"/>
<path style="stroke: none; fill-rule: nonzero; fill: rgb(6, 104, 176); opacity: 1;" d="M 15.980408 28.097961 C 21.009872 28.11496 25.943115 26.889572 30.973343 26.970215 C 36.232849 27.013992 41.494217 26.931915 46.752426 27.097977 C 48.292435 28.817093 50.361938 29.795471 52.477264 30.610107 C 55.447678 31.769623 56.458801 35.074646 57.941391 37.597397 C 57.980286 39.806427 58.040115 42.01622 58.200806 44.221069 C 59.762817 46.937134 58.662582 49.86908 57.204865 52.328995 C 54.80806 56.83374 52.390717 61.446442 48.575012 64.940872 C 49.655624 67.075867 52.034698 67.584396 54.101944 68.317001 C 53.814301 69.705765 53.417175 71.076874 53.250229 72.489349 C 54.456711 73.854752 55.948166 75.000519 56.853058 76.612335 C 56.642212 81.314819 55.424286 86.520401 58.916946 90.421921 C 58.434586 97.059326 60.664032 104.023727 57.861221 110.339264 C 58.001205 114.370102 58.605057 118.710327 56.434723 122.355515 C 54.471252 125.696075 52.555725 129.218674 52.898285 133.247879 C 48.755417 135.868851 44.360626 138.216339 41.053741 141.932709 C 39.916931 141.978226 38.78064 142.025497 37.644882 142.074524 C 36.528671 142.642593 35.408813 143.20668 34.289291 143.770294 C 33.907516 143.234329 33.143997 142.162399 32.762222 141.626419 C 31.765457 142.39032 30.777313 143.166962 29.792267 143.948395 C 25.05452 143.694611 20.013123 144.934875 15.5112 143.030823 C 20.200302 141.052856 20.240402 135.462463 20.91153 131.143539 C 21.022339 123.801132 21.418182 116.393356 20.269836 109.108429 C 19.566895 102.347031 20.252975 95.546509 20.155838 88.768936 C 20.813904 88.177139 21.473007 87.587326 22.133163 86.999481 C 21.690979 82.262817 20.498093 77.549347 21.179794 72.768005 C 22.95874 69.29483 20.841995 65.621597 20.990295 62.011124 C 21.027069 55.25853 20.842865 48.497574 21.178802 41.750595 C 21.615219 40.199249 21.971237 38.628128 22.317291 37.055511 C 21.600983 37.040039 20.168381 37.009064 19.452072 36.993576 C 18.017654 35.535126 16.576462 34.084152 15.129013 32.63945 C 14.979172 32.027145 14.679474 30.802505 14.529617 30.190186 C 14.892319 29.66713 15.617706 28.621017 15.980408 28.097961 Z M 15.980408 28.097961 "/>
<path style="fill: none; stroke-width: 0.1; stroke-linecap: butt; stroke-linejoin: miter; stroke: rgb(6, 104, 176); opacity: 1; stroke-miterlimit: 10;" d="M 143.004028 26.5569 C 152.355148 26.464966 161.705063 26.717773 171.056305 26.612137 C 173.178787 26.507874 175.244629 27.020432 177.243134 27.690781 C 176.012939 30.445969 174.751053 33.198502 173.095016 35.729614 C 173.050995 36.986343 173.015503 38.243561 172.984772 39.501617 C 171.98967 40.639191 171.000549 41.779495 170.007874 42.916794 C 170.003159 44.132156 170.000641 45.348083 170.000305 46.564606 C 169.543976 47.012878 168.631317 47.909409 168.174988 48.357681 C 167.805237 51.027863 167.242371 53.664993 166.679626 56.299866 C 164.196182 61.352371 166.043915 67.202942 164.315903 72.456558 C 163.607346 76.049026 160.913681 79.148819 161.286743 82.931473 C 160.234589 84.705978 158.981567 86.379456 158.202545 88.302002 C 157.439087 92.870789 158.82785 97.676468 157.249298 102.127426 C 154.943878 107.828705 156.340057 114.497513 152.335159 119.611603 C 151.67218 121.956238 150.809006 124.237381 149.84198 126.473602 C 152.53186 126.33989 155.252518 126.276154 157.889755 125.676544 C 159.149475 124.090668 159.656372 121.652054 161.854721 121.061508 C 165.887344 119.386673 169.992081 117.644806 173.205765 114.591568 C 175.526871 115.023178 178.298126 114.508759 180.08139 116.380997 C 179.905838 117.562241 179.621597 118.719482 179.228653 119.852692 C 179.911865 124.054657 180.423203 128.353424 179.8535 132.6008 C 179.540619 132.912125 178.914825 133.53479 178.601929 133.846115 C 173.865112 134.175049 169.024231 134.348969 164.342575 133.415909 C 162.801956 133.04277 161.261292 132.689819 159.72403 132.32164 C 158.637955 133.21701 157.547195 134.106644 156.462555 135.002304 C 151.808121 134.714951 147.094971 134.892136 142.861069 137.046722 C 141.094254 134.518936 142.016861 131.038513 142.706757 128.255692 C 142.837463 127.309219 142.964188 126.363602 143.086945 125.418869 C 143.519379 124.970917 144.384216 124.074982 144.81665 123.627029 C 145.633713 117.683258 147.657623 111.847458 146.920395 105.772141 C 144.183044 102.412216 145.013046 97.950226 144.986938 93.957581 C 145.04454 87.644562 148.461487 82.099091 150.363068 76.244324 C 151.352539 73.683105 150.64183 70.856216 151.501236 68.256165 C 152.283661 64.357269 154.833206 61.01886 155.081512 56.996872 C 155.62886 49.876877 162.098343 45.103226 162.87532 38.050583 C 162.390915 37.857513 161.422119 37.47139 160.937729 37.278336 C 158.671738 37.487732 156.45993 37.089706 154.62236 35.678345 C 152.671661 36.004013 150.191162 35.970978 149.264282 38.100952 C 147.346634 42.063416 147.216721 46.592026 145.91304 50.761322 C 144.520401 51.20575 143.134476 51.667084 141.752136 52.132355 C 141.794373 50.207123 141.806442 48.282593 141.782104 46.3582 C 144.207977 40.05571 142.504044 33.132202 143.004028 26.5569 Z M 143.004028 26.5569 " transform="matrix(1, 0, 0, 1, 0, 0)"/>
<path style="stroke: none; fill-rule: nonzero; fill: rgb(6, 104, 176); opacity: 1;" d="M 143.004028 26.5569 C 152.355148 26.464966 161.705063 26.717773 171.056305 26.612137 C 173.178787 26.507874 175.244629 27.020432 177.243134 27.690781 C 176.012939 30.445969 174.751053 33.198502 173.095016 35.729614 C 173.050995 36.986343 173.015503 38.243561 172.984772 39.501617 C 171.98967 40.639191 171.000549 41.779495 170.007874 42.916794 C 170.003159 44.132156 170.000641 45.348083 170.000305 46.564606 C 169.543976 47.012878 168.631317 47.909409 168.174988 48.357681 C 167.805237 51.027863 167.242371 53.664993 166.679626 56.299866 C 164.196182 61.352371 166.043915 67.202942 164.315903 72.456558 C 163.607346 76.049026 160.913681 79.148819 161.286743 82.931473 C 160.234589 84.705978 158.981567 86.379456 158.202545 88.302002 C 157.439087 92.870789 158.82785 97.676468 157.249298 102.127426 C 154.943878 107.828705 156.340057 114.497513 152.335159 119.611603 C 151.67218 121.956238 150.809006 124.237381 149.84198 126.473602 C 152.53186 126.33989 155.252518 126.276154 157.889755 125.676544 C 159.149475 124.090668 159.656372 121.652054 161.854721 121.061508 C 165.887344 119.386673 169.992081 117.644806 173.205765 114.591568 C 175.526871 115.023178 178.298126 114.508759 180.08139 116.380997 C 179.905838 117.562241 179.621597 118.719482 179.228653 119.852692 C 179.911865 124.054657 180.423203 128.353424 179.8535 132.6008 C 179.540619 132.912125 178.914825 133.53479 178.601929 133.846115 C 173.865112 134.175049 169.024231 134.348969 164.342575 133.415909 C 162.801956 133.04277 161.261292 132.689819 159.72403 132.32164 C 158.637955 133.21701 157.547195 134.106644 156.462555 135.002304 C 151.808121 134.714951 147.094971 134.892136 142.861069 137.046722 C 141.094254 134.518936 142.016861 131.038513 142.706757 128.255692 C 142.837463 127.309219 142.964188 126.363602 143.086945 125.418869 C 143.519379 124.970917 144.384216 124.074982 144.81665 123.627029 C 145.633713 117.683258 147.657623 111.847458 146.920395 105.772141 C 144.183044 102.412216 145.013046 97.950226 144.986938 93.957581 C 145.04454 87.644562 148.461487 82.099091 150.363068 76.244324 C 151.352539 73.683105 150.64183 70.856216 151.501236 68.256165 C 152.283661 64.357269 154.833206 61.01886 155.081512 56.996872 C 155.62886 49.876877 162.098343 45.103226 162.87532 38.050583 C 162.390915 37.857513 161.422119 37.47139 160.937729 37.278336 C 158.671738 37.487732 156.45993 37.089706 154.62236 35.678345 C 152.671661 36.004013 150.191162 35.970978 149.264282 38.100952 C 147.346634 42.063416 147.216721 46.592026 145.91304 50.761322 C 144.520401 51.20575 143.134476 51.667084 141.752136 52.132355 C 141.794373 50.207123 141.806442 48.282593 141.782104 46.3582 C 144.207977 40.05571 142.504044 33.132202 143.004028 26.5569 Z M 143.004028 26.5569 "/>
<path style="fill: none; stroke-width: 0.1; stroke-linecap: butt; stroke-linejoin: miter; stroke: rgb(6, 104, 176); opacity: 1; stroke-miterlimit: 10;" d="M 80.682755 28.149948 C 87.371597 27.846481 94.069824 28.060471 100.763367 27.998779 C 101.125107 28.769531 101.488785 29.540421 101.854401 30.311432 C 99.366943 31.448135 97.073105 33.029633 95.913513 35.599701 C 97.649475 39.597137 95.414429 43.84111 95.958542 48.001205 C 96.444855 56.883759 94.952927 65.952332 97.151825 74.675812 C 96.707535 75.208557 95.81897 76.274078 95.374695 76.806824 C 95.521561 80.887161 95.979111 84.944626 96.310669 89.011826 C 96.643814 91.025635 94.998306 92.526337 94.152527 94.178528 C 94.993652 97.796082 95.726151 101.453613 97.03479 104.942322 C 96.645752 109.202728 93.963135 113.389709 95.913864 117.634109 C 97.973297 118.809082 99.982712 120.069824 102.008453 121.305054 C 102.008286 121.991989 102.007935 123.365845 102.007767 124.05278 C 97.125153 123.685379 92.23172 123.739059 87.350113 124.076187 C 86.151077 124.882507 84.943512 125.675888 83.719086 126.443115 C 83.336899 123.394806 86.103287 121.73082 87.926254 119.849121 C 87.713669 113.595398 89.778107 107.387344 88.628998 101.19101 C 91.167725 93.709549 89.512589 85.725449 89.549042 78.010742 C 89.658737 70.576706 89.26265 63.127777 89.847321 55.707565 C 88.380478 48.318527 89.198547 40.692307 87.952377 33.251007 C 85.395309 31.749451 82.900406 30.128937 80.682755 28.149948 Z M 80.682755 28.149948 " transform="matrix(1, 0, 0, 1, 0, 0)"/>
<path style="stroke: none; fill-rule: nonzero; fill: rgb(6, 104, 176); opacity: 1;" d="M 80.682755 28.149948 C 87.371597 27.846481 94.069824 28.060471 100.763367 27.998779 C 101.125107 28.769531 101.488785 29.540421 101.854401 30.311432 C 99.366943 31.448135 97.073105 33.029633 95.913513 35.599701 C 97.649475 39.597137 95.414429 43.84111 95.958542 48.001205 C 96.444855 56.883759 94.952927 65.952332 97.151825 74.675812 C 96.707535 75.208557 95.81897 76.274078 95.374695 76.806824 C 95.521561 80.887161 95.979111 84.944626 96.310669 89.011826 C 96.643814 91.025635 94.998306 92.526337 94.152527 94.178528 C 94.993652 97.796082 95.726151 101.453613 97.03479 104.942322 C 96.645752 109.202728 93.963135 113.389709 95.913864 117.634109 C 97.973297 118.809082 99.982712 120.069824 102.008453 121.305054 C 102.008286 121.991989 102.007935 123.365845 102.007767 124.05278 C 97.125153 123.685379 92.23172 123.739059 87.350113 124.076187 C 86.151077 124.882507 84.943512 125.675888 83.719086 126.443115 C 83.336899 123.394806 86.103287 121.73082 87.926254 119.849121 C 87.713669 113.595398 89.778107 107.387344 88.628998 101.19101 C 91.167725 93.709549 89.512589 85.725449 89.549042 78.010742 C 89.658737 70.576706 89.26265 63.127777 89.847321 55.707565 C 88.380478 48.318527 89.198547 40.692307 87.952377 33.251007 C 85.395309 31.749451 82.900406 30.128937 80.682755 28.149948 Z M 80.682755 28.149948 "/>
<path style="fill: none; stroke-width: 0.1; stroke-linecap: butt; stroke-linejoin: miter; stroke: rgb(6, 104, 176); opacity: 1; stroke-miterlimit: 10;" d="M 106.992401 39.090851 C 106.98642 35.207504 106.523651 31.146042 108.23587 27.516846 C 117.443726 27.444748 126.637192 27.989075 135.845886 27.912994 C 135.975906 32.306824 137.139313 36.602463 137.040421 41.009827 C 136.929764 46.092178 137.829208 51.555405 134.894791 56.070007 C 135.131638 56.573746 135.605331 57.581223 135.842194 58.084976 C 132.402405 62.912979 130.05072 68.655579 129.809677 74.623138 C 128.151306 75.785019 126.371826 76.856277 125.088318 78.455994 C 124.396271 79.882187 124.844193 81.536163 124.748642 83.05983 C 120.521866 88.173233 117.660324 94.394058 116.499786 100.924423 C 115.844223 104.303604 114.560684 107.518326 113.209702 110.671082 C 113.096329 111.080307 112.869598 111.898773 112.756241 112.307999 C 111.958221 114.30098 111.247787 116.32814 110.622009 118.382935 C 114.62558 117.277908 118.619324 116.02948 122.461655 114.460419 C 125.089706 111.348312 127.022339 107.481186 130.874268 105.621109 C 131.371368 104.634811 131.866241 103.647919 132.358887 102.660446 C 132.939392 102.770401 134.100388 102.990295 134.680893 103.10025 C 135.719955 100.971695 136.662872 98.648758 138.768768 97.339081 C 139.006897 99.195724 139.213776 101.060028 139.440323 102.921326 C 135.440292 108.371475 137.425919 115.334366 137.016418 121.575729 C 132.22644 123.991241 126.753143 123.250351 121.678543 122.371475 C 119.81279 122.104431 118.282745 124.044571 116.393875 123.639343 C 113.035645 123.05246 109.623093 123.036453 106.239349 122.723434 C 106.551071 119.878479 107.014038 117.048767 107.125366 114.184799 C 107.490646 113.689392 108.221222 112.698547 108.586502 112.20314 C 108.013901 110.717896 107.437912 109.23735 106.863953 107.75679 C 105.134949 101.363251 106.951492 94.912552 108.929337 88.812057 C 109.763672 86.484512 111.249649 84.479996 112.627701 82.45491 C 113.37085 79.445343 114.965759 76.772064 116.91861 74.394958 C 117.000107 73.484848 117.08316 72.575668 117.167786 71.667435 C 118.142899 68.670059 119.097504 65.662033 120.31546 62.751953 C 122.536331 60.702377 124.576279 58.403778 126.133698 55.807449 C 126.287186 53.936127 126.08667 52.058533 126.038269 50.187683 C 128.689636 47.206619 131.122375 44.040817 133.506485 40.844208 C 133.422546 38.562988 133.373688 36.281235 133.331726 33.999695 C 129.401428 33.998947 125.472305 34.009277 121.543503 33.986496 C 118.728683 35.702744 116.209229 37.949158 115.542206 41.332169 C 114.339371 42.211777 113.141464 43.096069 111.950775 43.989609 C 111.904739 48.095352 112.824219 52.546173 110.370407 56.19635 C 107.993057 51.567871 107.450897 46.316406 109.16423 41.373352 C 108.439148 40.611847 107.71521 39.851013 106.992401 39.090851 Z M 106.992401 39.090851 " transform="matrix(1, 0, 0, 1, 0, 0)"/>
<path style="stroke: none; fill-rule: nonzero; fill: rgb(6, 104, 176); opacity: 1;" d="M 106.992401 39.090851 C 106.98642 35.207504 106.523651 31.146042 108.23587 27.516846 C 117.443726 27.444748 126.637192 27.989075 135.845886 27.912994 C 135.975906 32.306824 137.139313 36.602463 137.040421 41.009827 C 136.929764 46.092178 137.829208 51.555405 134.894791 56.070007 C 135.131638 56.573746 135.605331 57.581223 135.842194 58.084976 C 132.402405 62.912979 130.05072 68.655579 129.809677 74.623138 C 128.151306 75.785019 126.371826 76.856277 125.088318 78.455994 C 124.396271 79.882187 124.844193 81.536163 124.748642 83.05983 C 120.521866 88.173233 117.660324 94.394058 116.499786 100.924423 C 115.844223 104.303604 114.560684 107.518326 113.209702 110.671082 C 113.096329 111.080307 112.869598 111.898773 112.756241 112.307999 C 111.958221 114.30098 111.247787 116.32814 110.622009 118.382935 C 114.62558 117.277908 118.619324 116.02948 122.461655 114.460419 C 125.089706 111.348312 127.022339 107.481186 130.874268 105.621109 C 131.371368 104.634811 131.866241 103.647919 132.358887 102.660446 C 132.939392 102.770401 134.100388 102.990295 134.680893 103.10025 C 135.719955 100.971695 136.662872 98.648758 138.768768 97.339081 C 139.006897 99.195724 139.213776 101.060028 139.440323 102.921326 C 135.440292 108.371475 137.425919 115.334366 137.016418 121.575729 C 132.22644 123.991241 126.753143 123.250351 121.678543 122.371475 C 119.81279 122.104431 118.282745 124.044571 116.393875 123.639343 C 113.035645 123.05246 109.623093 123.036453 106.239349 122.723434 C 106.551071 119.878479 107.014038 117.048767 107.125366 114.184799 C 107.490646 113.689392 108.221222 112.698547 108.586502 112.20314 C 108.013901 110.717896 107.437912 109.23735 106.863953 107.75679 C 105.134949 101.363251 106.951492 94.912552 108.929337 88.812057 C 109.763672 86.484512 111.249649 84.479996 112.627701 82.45491 C 113.37085 79.445343 114.965759 76.772064 116.91861 74.394958 C 117.000107 73.484848 117.08316 72.575668 117.167786 71.667435 C 118.142899 68.670059 119.097504 65.662033 120.31546 62.751953 C 122.536331 60.702377 124.576279 58.403778 126.133698 55.807449 C 126.287186 53.936127 126.08667 52.058533 126.038269 50.187683 C 128.689636 47.206619 131.122375 44.040817 133.506485 40.844208 C 133.422546 38.562988 133.373688 36.281235 133.331726 33.999695 C 129.401428 33.998947 125.472305 34.009277 121.543503 33.986496 C 118.728683 35.702744 116.209229 37.949158 115.542206 41.332169 C 114.339371 42.211777 113.141464 43.096069 111.950775 43.989609 C 111.904739 48.095352 112.824219 52.546173 110.370407 56.19635 C 107.993057 51.567871 107.450897 46.316406 109.16423 41.373352 C 108.439148 40.611847 107.71521 39.851013 106.992401 39.090851 Z M 106.992401 39.090851 "/>
<path style="fill: none; stroke-width: 0.1; stroke-linecap: butt; stroke-linejoin: miter; stroke: rgb(3, 2, 0); opacity: 1; stroke-miterlimit: 10;" d="M 218.090286 37.471039 C 221.844742 38.924179 224.213577 42.303513 226.5979 45.353683 C 228.296738 47.445023 228.008453 50.213562 228.144165 52.727203 C 226.832291 56.587372 226.678726 60.910965 224.370377 64.381744 C 222.951141 66.468079 220.302094 66.833893 218.038895 67.359375 C 218.003494 57.396957 217.912231 47.431946 218.090286 37.471039 Z M 218.090286 37.471039 " transform="matrix(1, 0, 0, 1, 0, 0)"/>
<path style="stroke: none; fill-rule: nonzero; fill: rgb(3, 2, 0); opacity: 1;" d="M 218.090286 37.471039 C 221.844742 38.924179 224.213577 42.303513 226.5979 45.353683 C 228.296738 47.445023 228.008453 50.213562 228.144165 52.727203 C 226.832291 56.587372 226.678726 60.910965 224.370377 64.381744 C 222.951141 66.468079 220.302094 66.833893 218.038895 67.359375 C 218.003494 57.396957 217.912231 47.431946 218.090286 37.471039 Z M 218.090286 37.471039 "/>
<path style="fill: none; stroke-width: 0.1; stroke-linecap: butt; stroke-linejoin: miter; stroke: rgb(3, 2, 0); opacity: 1; stroke-miterlimit: 10;" d="M 37.062561 39.547073 C 38.817856 39.796463 40.577774 40.009338 42.33844 40.225342 C 43.703796 41.018967 45.088242 41.779282 46.489197 42.511459 C 46.162399 42.864426 45.508789 43.570358 45.181976 43.923325 C 46.126999 47.500961 44.95723 51.138077 45.038788 54.757874 C 42.187576 55.934433 40.252838 58.306778 38.895859 60.996124 C 38.171921 60.997253 36.724045 60.999527 36.000107 61.000656 C 36.30365 54.432526 35.287918 47.755066 36.627899 41.270462 C 36.736557 40.839615 36.953888 39.977921 37.062561 39.547073 Z M 37.062561 39.547073 " transform="matrix(1, 0, 0, 1, 0, 0)"/>
<path style="stroke: none; fill-rule: nonzero; fill: rgb(3, 2, 0); opacity: 1;" d="M 37.062561 39.547073 C 38.817856 39.796463 40.577774 40.009338 42.33844 40.225342 C 43.703796 41.018967 45.088242 41.779282 46.489197 42.511459 C 46.162399 42.864426 45.508789 43.570358 45.181976 43.923325 C 46.126999 47.500961 44.95723 51.138077 45.038788 54.757874 C 42.187576 55.934433 40.252838 58.306778 38.895859 60.996124 C 38.171921 60.997253 36.724045 60.999527 36.000107 61.000656 C 36.30365 54.432526 35.287918 47.755066 36.627899 41.270462 C 36.736557 40.839615 36.953888 39.977921 37.062561 39.547073 Z M 37.062561 39.547073 "/>
<path style="fill: none; stroke-width: 0.1; stroke-linecap: butt; stroke-linejoin: miter; stroke: rgb(3, 2, 0); opacity: 1; stroke-miterlimit: 10;" d="M 255.642136 50.288727 C 257.820724 50.562286 260.001205 50.832977 262.186874 51.095551 C 265.066742 53.950699 268.61055 56.617981 269.57283 60.787125 C 271.219421 64.732315 271.198227 69.059219 270.886398 73.250992 C 269.902618 75.24292 269.187866 77.349564 268.635635 79.497726 C 263.952393 88.228561 267.178711 98.486969 265.591492 107.805832 C 262.993912 113.674301 262.94342 120.560898 258.495224 125.559753 C 258.238724 111.352921 258.43924 97.139771 258.406387 82.931259 C 258.418762 77.830826 255.832062 73.116409 256.001541 67.989029 C 256.164062 62.080566 254.423309 56.155685 255.642136 50.288727 Z M 255.642136 50.288727 " transform="matrix(1, 0, 0, 1, 0, 0)"/>
<path style="stroke: none; fill-rule: nonzero; fill: rgb(3, 2, 0); opacity: 1;" d="M 255.642136 50.288727 C 257.820724 50.562286 260.001205 50.832977 262.186874 51.095551 C 265.066742 53.950699 268.61055 56.617981 269.57283 60.787125 C 271.219421 64.732315 271.198227 69.059219 270.886398 73.250992 C 269.902618 75.24292 269.187866 77.349564 268.635635 79.497726 C 263.952393 88.228561 267.178711 98.486969 265.591492 107.805832 C 262.993912 113.674301 262.94342 120.560898 258.495224 125.559753 C 258.238724 111.352921 258.43924 97.139771 258.406387 82.931259 C 258.418762 77.830826 255.832062 73.116409 256.001541 67.989029 C 256.164062 62.080566 254.423309 56.155685 255.642136 50.288727 Z M 255.642136 50.288727 "/>
<path style="fill: none; stroke-width: 0.1; stroke-linecap: butt; stroke-linejoin: miter; stroke: rgb(3, 2, 0); opacity: 1; stroke-miterlimit: 10;" d="M 184.085236 64.931061 C 185.437668 67.251343 187.597321 68.815964 190.101089 69.72229 C 192.222504 77.102432 192.565628 84.881561 191.532715 92.471344 C 188.11467 90.118774 184.346024 88.118149 180.053833 88.441803 C 179.429855 83.412033 179.821777 78.375031 180.900284 73.438889 C 182.517838 70.841705 184.025681 68.07579 184.085236 64.931061 Z M 184.085236 64.931061 " transform="matrix(1, 0, 0, 1, 0, 0)"/>
<path style="stroke: none; fill-rule: nonzero; fill: rgb(3, 2, 0); opacity: 1;" d="M 184.085236 64.931061 C 185.437668 67.251343 187.597321 68.815964 190.101089 69.72229 C 192.222504 77.102432 192.565628 84.881561 191.532715 92.471344 C 188.11467 90.118774 184.346024 88.118149 180.053833 88.441803 C 179.429855 83.412033 179.821777 78.375031 180.900284 73.438889 C 182.517838 70.841705 184.025681 68.07579 184.085236 64.931061 Z M 184.085236 64.931061 "/>
<path style="fill: none; stroke-width: 0.1; stroke-linecap: butt; stroke-linejoin: miter; stroke: rgb(3, 2, 0); opacity: 1; stroke-miterlimit: 10;" d="M 35.998611 72.659546 C 38.481934 75.037628 41.127426 77.238525 43.910278 79.258728 C 45.323532 83.736862 45.717682 88.570221 44.421814 93.12854 C 45.279327 95.297241 46.835007 97.695023 45.028275 99.900024 C 45.545395 104.071915 46.75116 108.35466 45.461563 112.516937 C 45.451096 112.555084 45.430176 112.631363 45.419708 112.66951 C 45.208069 113.34433 44.784775 114.694 44.573135 115.368835 C 43.707687 118.914261 44.674072 123.087723 42.100143 126.049377 C 39.684891 129.316055 36.009415 131.2966 32.386826 132.938416 C 32.775177 132.026337 33.551865 130.202194 33.940201 129.290115 C 33.478241 117.941391 36.410385 106.62207 34.481155 95.308548 C 35.170425 93.28894 35.989426 91.249222 35.938889 89.076813 C 35.829071 83.603851 36.030014 78.132401 35.998611 72.659546 Z M 35.998611 72.659546 " transform="matrix(1, 0, 0, 1, 0, 0)"/>
<path style="stroke: none; fill-rule: nonzero; fill: rgb(3, 2, 0); opacity: 1;" d="M 35.998611 72.659546 C 38.481934 75.037628 41.127426 77.238525 43.910278 79.258728 C 45.323532 83.736862 45.717682 88.570221 44.421814 93.12854 C 45.279327 95.297241 46.835007 97.695023 45.028275 99.900024 C 45.545395 104.071915 46.75116 108.35466 45.461563 112.516937 C 45.451096 112.555084 45.430176 112.631363 45.419708 112.66951 C 45.208069 113.34433 44.784775 114.694 44.573135 115.368835 C 43.707687 118.914261 44.674072 123.087723 42.100143 126.049377 C 39.684891 129.316055 36.009415 131.2966 32.386826 132.938416 C 32.775177 132.026337 33.551865 130.202194 33.940201 129.290115 C 33.478241 117.941391 36.410385 106.62207 34.481155 95.308548 C 35.170425 93.28894 35.989426 91.249222 35.938889 89.076813 C 35.829071 83.603851 36.030014 78.132401 35.998611 72.659546 Z M 35.998611 72.659546 "/>
<path style="fill: none; stroke-width: 0.1; stroke-linecap: butt; stroke-linejoin: miter; stroke: rgb(21, 68, 92); opacity: 1; stroke-miterlimit: 10;" d="M 45.419708 112.66951 C 45.430176 112.631363 45.451096 112.555084 45.461563 112.516937 C 45.451096 112.555084 45.430176 112.631363 45.419708 112.66951 Z M 45.419708 112.66951 " transform="matrix(1, 0, 0, 1, 0, 0)"/>
<path style="stroke: none; fill-rule: nonzero; fill: rgb(21, 68, 92); opacity: 1;" d="M 45.419708 112.66951 C 45.430176 112.631363 45.451096 112.555084 45.461563 112.516937 C 45.451096 112.555084 45.430176 112.631363 45.419708 112.66951 Z M 45.419708 112.66951 "/>
<path style="fill: none; stroke-width: 0.1; stroke-linecap: butt; stroke-linejoin: miter; stroke: rgb(248, 251, 247); opacity: 1; stroke-miterlimit: 10;" d="M 195.188675 149.767105 C 197.141708 150.965424 198.718338 152.625 200.233368 154.324249 C 201.34436 153.065475 202.474564 151.823441 203.606812 150.583206 C 204.114151 150.604568 205.128799 150.647263 205.636124 150.668625 C 205.637863 154.128769 205.637604 157.589584 205.637604 161.051743 C 204.970261 160.998138 203.635559 160.890915 202.968216 160.837311 C 202.994385 158.703598 203.087372 156.573959 203.20932 154.446548 C 202.189728 155.549133 201.209015 156.686523 200.269119 157.857407 C 199.236832 156.740417 198.202759 155.625931 197.109344 154.575027 C 197.117065 156.716522 197.199005 158.857834 197.244919 161.001877 C 196.630325 161.001328 195.401138 161.000198 194.78653 160.999634 C 194.813492 157.25354 194.555283 153.478577 195.188675 149.767105 Z M 195.188675 149.767105 " transform="matrix(1, 0, 0, 1, 0, 0)"/>
<path style="stroke: none; fill-rule: nonzero; fill: rgb(248, 251, 247); opacity: 1;" d="M 195.188675 149.767105 C 197.141708 150.965424 198.718338 152.625 200.233368 154.324249 C 201.34436 153.065475 202.474564 151.823441 203.606812 150.583206 C 204.114151 150.604568 205.128799 150.647263 205.636124 150.668625 C 205.637863 154.128769 205.637604 157.589584 205.637604 161.051743 C 204.970261 160.998138 203.635559 160.890915 202.968216 160.837311 C 202.994385 158.703598 203.087372 156.573959 203.20932 154.446548 C 202.189728 155.549133 201.209015 156.686523 200.269119 157.857407 C 199.236832 156.740417 198.202759 155.625931 197.109344 154.575027 C 197.117065 156.716522 197.199005 158.857834 197.244919 161.001877 C 196.630325 161.001328 195.401138 161.000198 194.78653 160.999634 C 194.813492 157.25354 194.555283 153.478577 195.188675 149.767105 Z M 195.188675 149.767105 "/>
<path style="fill: none; stroke-width: 0.1; stroke-linecap: butt; stroke-linejoin: miter; stroke: rgb(248, 251, 247); opacity: 1; stroke-miterlimit: 10;" d="M 20.000366 150.61618 C 22.43718 151.238052 27.453857 148.882553 27.346664 152.789154 C 25.342545 152.712234 23.335236 152.709656 21.334778 152.865402 C 22.386703 155.192032 24.988693 154.503143 27.000046 154.713333 L 27.000107 156.360992 C 25.434479 156.37558 23.869736 156.396759 22.304993 156.429977 C 22.276535 157.045044 22.21962 158.275177 22.191162 158.890259 C 23.984253 158.940765 25.778152 158.93335 27.572388 158.926575 C 27.06987 162.595901 22.538483 160.453201 19.999908 161.005676 C 20.000168 157.541489 19.999146 154.078323 20.000366 150.61618 Z M 20.000366 150.61618 " transform="matrix(1, 0, 0, 1, 0, 0)"/>
<path style="stroke: none; fill-rule: nonzero; fill: rgb(248, 251, 247); opacity: 1;" d="M 20.000366 150.61618 C 22.43718 151.238052 27.453857 148.882553 27.346664 152.789154 C 25.342545 152.712234 23.335236 152.709656 21.334778 152.865402 C 22.386703 155.192032 24.988693 154.503143 27.000046 154.713333 L 27.000107 156.360992 C 25.434479 156.37558 23.869736 156.396759 22.304993 156.429977 C 22.276535 157.045044 22.21962 158.275177 22.191162 158.890259 C 23.984253 158.940765 25.778152 158.93335 27.572388 158.926575 C 27.06987 162.595901 22.538483 160.453201 19.999908 161.005676 C 20.000168 157.541489 19.999146 154.078323 20.000366 150.61618 Z M 20.000366 150.61618 "/>
<path style="fill: none; stroke-width: 0.1; stroke-linecap: butt; stroke-linejoin: miter; stroke: rgb(248, 251, 247); opacity: 1; stroke-miterlimit: 10;" d="M 38.712097 150.54808 C 39.414902 150.633163 40.820496 150.803329 41.5233 150.888428 C 43.066162 152.936584 44.673538 154.937714 46.37944 156.855301 C 46.85144 154.469742 44.859161 149.958115 48.916519 150.334808 C 49.041 154.032928 49.052612 157.736755 48.912384 161.436523 C 45.419449 160.30928 43.758377 156.693832 41.009735 154.508575 C 40.987656 156.670486 40.999619 158.834656 41.000977 161.000015 C 40.44696 161 39.338928 161 38.784912 161 C 38.793427 157.514832 38.786392 154.030579 38.712097 150.54808 Z M 38.712097 150.54808 " transform="matrix(1, 0, 0, 1, 0, 0)"/>
<path style="stroke: none; fill-rule: nonzero; fill: rgb(248, 251, 247); opacity: 1;" d="M 38.712097 150.54808 C 39.414902 150.633163 40.820496 150.803329 41.5233 150.888428 C 43.066162 152.936584 44.673538 154.937714 46.37944 156.855301 C 46.85144 154.469742 44.859161 149.958115 48.916519 150.334808 C 49.041 154.032928 49.052612 157.736755 48.912384 161.436523 C 45.419449 160.30928 43.758377 156.693832 41.009735 154.508575 C 40.987656 156.670486 40.999619 158.834656 41.000977 161.000015 C 40.44696 161 39.338928 161 38.784912 161 C 38.793427 157.514832 38.786392 154.030579 38.712097 150.54808 Z M 38.712097 150.54808 "/>
<path style="fill: none; stroke-width: 0.1; stroke-linecap: butt; stroke-linejoin: miter; stroke: rgb(248, 251, 247); opacity: 1; stroke-miterlimit: 10;" d="M 60.002502 150.621628 C 63.491928 150.623032 66.982483 150.579422 70.471664 150.691727 C 70.22049 153.292709 67.930542 152.781082 66.033936 152.697708 C 66.084473 155.375366 66.21347 158.062958 65.989227 160.738312 C 65.400543 160.881546 64.22319 161.168015 63.634506 161.311249 C 63.594849 158.45665 63.612198 155.602097 63.758881 152.75296 C 62.503662 152.690689 61.248978 152.635864 59.994827 152.58847 C 59.99675 152.096756 60.00058 151.113342 60.002502 150.621628 Z M 60.002502 150.621628 " transform="matrix(1, 0, 0, 1, 0, 0)"/>
<path style="stroke: none; fill-rule: nonzero; fill: rgb(248, 251, 247); opacity: 1;" d="M 60.002502 150.621628 C 63.491928 150.623032 66.982483 150.579422 70.471664 150.691727 C 70.22049 153.292709 67.930542 152.781082 66.033936 152.697708 C 66.084473 155.375366 66.21347 158.062958 65.989227 160.738312 C 65.400543 160.881546 64.22319 161.168015 63.634506 161.311249 C 63.594849 158.45665 63.612198 155.602097 63.758881 152.75296 C 62.503662 152.690689 61.248978 152.635864 59.994827 152.58847 C 59.99675 152.096756 60.00058 151.113342 60.002502 150.621628 Z M 60.002502 150.621628 "/>
<path style="fill: none; stroke-width: 0.1; stroke-linecap: butt; stroke-linejoin: miter; stroke: rgb(248, 251, 247); opacity: 1; stroke-miterlimit: 10;" d="M 80.872742 150.61525 C 83.438675 151.206497 87.988449 149.008591 88.686707 152.577286 C 86.549042 152.667572 84.409088 152.722168 82.280518 152.936737 C 83.646027 154.831284 85.943359 154.668442 88 154.729568 L 88 156.361908 C 86.436676 156.375702 84.87561 156.395538 83.314743 156.426849 C 83.292007 157.039185 83.246506 158.26387 83.223755 158.876221 C 84.8909 158.953995 86.559128 159.000229 88.229767 159.049683 C 88.22612 159.537247 88.218796 160.51239 88.215149 160.999969 C 85.791931 160.998352 83.370102 160.999557 80.948471 160.999466 C 80.995453 157.537079 81.042419 154.073318 80.872742 150.61525 Z M 80.872742 150.61525 " transform="matrix(1, 0, 0, 1, 0, 0)"/>
<path style="stroke: none; fill-rule: nonzero; fill: rgb(248, 251, 247); opacity: 1;" d="M 80.872742 150.61525 C 83.438675 151.206497 87.988449 149.008591 88.686707 152.577286 C 86.549042 152.667572 84.409088 152.722168 82.280518 152.936737 C 83.646027 154.831284 85.943359 154.668442 88 154.729568 L 88 156.361908 C 86.436676 156.375702 84.87561 156.395538 83.314743 156.426849 C 83.292007 157.039185 83.246506 158.26387 83.223755 158.876221 C 84.8909 158.953995 86.559128 159.000229 88.229767 159.049683 C 88.22612 159.537247 88.218796 160.51239 88.215149 160.999969 C 85.791931 160.998352 83.370102 160.999557 80.948471 160.999466 C 80.995453 157.537079 81.042419 154.073318 80.872742 150.61525 Z M 80.872742 150.61525 "/>
<path style="fill: none; stroke-width: 0.1; stroke-linecap: butt; stroke-linejoin: miter; stroke: rgb(248, 251, 247); opacity: 1; stroke-miterlimit: 10;" d="M 99.824402 150.542526 C 102.145157 150.64566 104.571075 150.487671 106.762329 151.413544 C 108.459152 152.940659 107.146957 154.844223 106.22673 156.358032 C 107.237137 157.925858 108.18161 159.536087 109.068909 161.181061 C 105.212311 162.100906 105.120224 157.399597 102.15036 156.315292 C 102.162735 157.87587 102.190796 159.438095 102.234558 161.001953 C 101.621536 161.001343 100.395477 161.000122 99.782455 160.999512 C 99.781647 157.512848 99.762375 154.026794 99.824402 150.542526 Z M 99.824402 150.542526 " transform="matrix(1, 0, 0, 1, 0, 0)"/>
<path style="stroke: none; fill-rule: nonzero; fill: rgb(248, 251, 247); opacity: 1;" d="M 99.824402 150.542526 C 102.145157 150.64566 104.571075 150.487671 106.762329 151.413544 C 108.459152 152.940659 107.146957 154.844223 106.22673 156.358032 C 107.237137 157.925858 108.18161 159.536087 109.068909 161.181061 C 105.212311 162.100906 105.120224 157.399597 102.15036 156.315292 C 102.162735 157.87587 102.190796 159.438095 102.234558 161.001953 C 101.621536 161.001343 100.395477 161.000122 99.782455 160.999512 C 99.781647 157.512848 99.762375 154.026794 99.824402 150.542526 Z M 99.824402 150.542526 "/>
<path style="fill: none; stroke-width: 0.1; stroke-linecap: butt; stroke-linejoin: miter; stroke: rgb(248, 251, 247); opacity: 1; stroke-miterlimit: 10;" d="M 117.61377 151.054947 C 121.107193 150.090988 124.933914 150.74884 128.547134 150.836349 C 128.076492 153.187988 125.801208 152.74939 123.999649 152.907837 C 123.983688 155.472443 124.114639 158.045807 123.902374 160.607712 C 123.339706 160.801147 122.214386 161.188034 121.651718 161.38147 C 121.592773 158.548782 121.606995 155.715698 121.738205 152.887665 C 120.324585 152.376236 116.719467 153.638062 117.61377 151.054947 Z M 117.61377 151.054947 " transform="matrix(1, 0, 0, 1, 0, 0)"/>
<path style="stroke: none; fill-rule: nonzero; fill: rgb(248, 251, 247); opacity: 1;" d="M 117.61377 151.054947 C 121.107193 150.090988 124.933914 150.74884 128.547134 150.836349 C 128.076492 153.187988 125.801208 152.74939 123.999649 152.907837 C 123.983688 155.472443 124.114639 158.045807 123.902374 160.607712 C 123.339706 160.801147 122.214386 161.188034 121.651718 161.38147 C 121.592773 158.548782 121.606995 155.715698 121.738205 152.887665 C 120.324585 152.376236 116.719467 153.638062 117.61377 151.054947 Z M 117.61377 151.054947 "/>
<path style="fill: none; stroke-width: 0.1; stroke-linecap: butt; stroke-linejoin: miter; stroke: rgb(248, 251, 247); opacity: 1; stroke-miterlimit: 10;" d="M 140.249084 150.598511 C 140.915848 150.631256 142.249374 150.696732 142.916138 150.729462 C 144.996399 153.971619 146.161102 157.785538 147.934875 161.230148 C 145.964386 161.355576 144.555328 160.438736 143.678436 158.746933 C 140.670486 158.183289 138.615677 160.32164 136.10675 161.456329 C 137.081772 157.690155 138.791183 154.186829 140.249084 150.598511 Z M 140.249084 150.598511 " transform="matrix(1, 0, 0, 1, 0, 0)"/>
<path style="stroke: none; fill-rule: nonzero; fill: rgb(248, 251, 247); opacity: 1;" d="M 140.249084 150.598511 C 140.915848 150.631256 142.249374 150.696732 142.916138 150.729462 C 144.996399 153.971619 146.161102 157.785538 147.934875 161.230148 C 145.964386 161.355576 144.555328 160.438736 143.678436 158.746933 C 140.670486 158.183289 138.615677 160.32164 136.10675 161.456329 C 137.081772 157.690155 138.791183 154.186829 140.249084 150.598511 Z M 140.249084 150.598511 "/>
<path style="fill: none; stroke-width: 0.1; stroke-linecap: butt; stroke-linejoin: miter; stroke: rgb(248, 251, 247); opacity: 1; stroke-miterlimit: 10;" d="M 158.664154 161.041245 C 158.514252 157.252701 158.046783 153.413422 158.825058 149.661713 C 159.323318 150.063278 160.319824 150.866409 160.818085 151.267975 C 160.932037 154.472504 160.810196 157.683289 160.936188 160.891098 C 160.368179 160.928635 159.232162 161.003708 158.664154 161.041245 Z M 158.664154 161.041245 " transform="matrix(1, 0, 0, 1, 0, 0)"/>
<path style="stroke: none; fill-rule: nonzero; fill: rgb(248, 251, 247); opacity: 1;" d="M 158.664154 161.041245 C 158.514252 157.252701 158.046783 153.413422 158.825058 149.661713 C 159.323318 150.063278 160.319824 150.866409 160.818085 151.267975 C 160.932037 154.472504 160.810196 157.683289 160.936188 160.891098 C 160.368179 160.928635 159.232162 161.003708 158.664154 161.041245 Z M 158.664154 161.041245 "/>
<path style="fill: none; stroke-width: 0.1; stroke-linecap: butt; stroke-linejoin: miter; stroke: rgb(248, 251, 247); opacity: 1; stroke-miterlimit: 10;" d="M 172.864426 150.298126 C 176.618866 150.683746 178.052643 154.57576 180.588791 156.805664 C 180.488586 154.647568 180.367249 152.490723 180.356354 150.333633 C 180.993942 150.503647 182.269104 150.843658 182.906693 151.013672 C 183.128906 154.50238 183.06987 158.013321 182.755234 161.496872 C 179.421692 160.007919 177.620514 156.657578 175.092453 154.210251 C 175.083008 156.473663 175.192474 158.737167 175.248505 161.002563 C 174.632401 161.00174 173.400208 161.000092 172.784103 160.999268 C 172.785522 157.431198 172.735764 153.862869 172.864426 150.298126 Z M 172.864426 150.298126 " transform="matrix(1, 0, 0, 1, 0, 0)"/>
<path style="stroke: none; fill-rule: nonzero; fill: rgb(248, 251, 247); opacity: 1;" d="M 172.864426 150.298126 C 176.618866 150.683746 178.052643 154.57576 180.588791 156.805664 C 180.488586 154.647568 180.367249 152.490723 180.356354 150.333633 C 180.993942 150.503647 182.269104 150.843658 182.906693 151.013672 C 183.128906 154.50238 183.06987 158.013321 182.755234 161.496872 C 179.421692 160.007919 177.620514 156.657578 175.092453 154.210251 C 175.083008 156.473663 175.192474 158.737167 175.248505 161.002563 C 174.632401 161.00174 173.400208 161.000092 172.784103 160.999268 C 172.785522 157.431198 172.735764 153.862869 172.864426 150.298126 Z M 172.864426 150.298126 "/>
<path style="fill: none; stroke-width: 0.1; stroke-linecap: butt; stroke-linejoin: miter; stroke: rgb(248, 251, 247); opacity: 1; stroke-miterlimit: 10;" d="M 217.465836 150.746063 C 220.081421 150.608459 222.703476 150.601288 225.325836 150.632309 C 225.068298 151.166519 224.553238 152.23494 224.2957 152.76915 C 222.440567 152.786942 219.904663 151.819 219.460938 154.422531 C 221.496674 154.592255 223.540146 154.694244 225.57518 154.933426 C 224.258606 156.914215 221.840759 156.235809 219.893906 156.479523 C 219.915146 157.104218 219.957657 158.353607 219.978897 158.978302 C 221.793365 158.991974 223.609055 159.011536 225.428268 159.07637 C 224.587967 162.576157 220.174362 160.415848 217.622742 161.007202 C 217.634521 157.585449 217.657501 154.16185 217.465836 150.746063 Z M 217.465836 150.746063 " transform="matrix(1, 0, 0, 1, 0, 0)"/>
<path style="stroke: none; fill-rule: nonzero; fill: rgb(248, 251, 247); opacity: 1;" d="M 217.465836 150.746063 C 220.081421 150.608459 222.703476 150.601288 225.325836 150.632309 C 225.068298 151.166519 224.553238 152.23494 224.2957 152.76915 C 222.440567 152.786942 219.904663 151.819 219.460938 154.422531 C 221.496674 154.592255 223.540146 154.694244 225.57518 154.933426 C 224.258606 156.914215 221.840759 156.235809 219.893906 156.479523 C 219.915146 157.104218 219.957657 158.353607 219.978897 158.978302 C 221.793365 158.991974 223.609055 159.011536 225.428268 159.07637 C 224.587967 162.576157 220.174362 160.415848 217.622742 161.007202 C 217.634521 157.585449 217.657501 154.16185 217.465836 150.746063 Z M 217.465836 150.746063 "/>
<path style="fill: none; stroke-width: 0.1; stroke-linecap: butt; stroke-linejoin: miter; stroke: rgb(248, 251, 247); opacity: 1; stroke-miterlimit: 10;" d="M 236.121719 150.44545 C 239.881607 150.472412 241.374115 154.418579 243.986023 156.465347 C 244.006241 154.41806 244.011551 152.371704 244.085571 150.329056 C 244.686508 150.484863 245.888382 150.796448 246.489319 150.952255 C 246.697433 154.072006 246.909058 157.290787 246.381104 160.378662 C 245.951248 160.624908 245.091553 161.117432 244.661697 161.363678 C 242.740356 159.037476 240.897095 156.647827 238.906036 154.383865 C 238.845001 156.551071 238.886475 158.72226 238.935272 160.892563 C 238.241974 160.930664 236.855408 161.006851 236.162109 161.044952 C 236.172394 157.510681 236.139297 153.977585 236.121719 150.44545 Z M 236.121719 150.44545 " transform="matrix(1, 0, 0, 1, 0, 0)"/>
<path style="stroke: none; fill-rule: nonzero; fill: rgb(248, 251, 247); opacity: 1;" d="M 236.121719 150.44545 C 239.881607 150.472412 241.374115 154.418579 243.986023 156.465347 C 244.006241 154.41806 244.011551 152.371704 244.085571 150.329056 C 244.686508 150.484863 245.888382 150.796448 246.489319 150.952255 C 246.697433 154.072006 246.909058 157.290787 246.381104 160.378662 C 245.951248 160.624908 245.091553 161.117432 244.661697 161.363678 C 242.740356 159.037476 240.897095 156.647827 238.906036 154.383865 C 238.845001 156.551071 238.886475 158.72226 238.935272 160.892563 C 238.241974 160.930664 236.855408 161.006851 236.162109 161.044952 C 236.172394 157.510681 236.139297 153.977585 236.121719 150.44545 Z M 236.121719 150.44545 "/>
<path style="fill: none; stroke-width: 0.1; stroke-linecap: butt; stroke-linejoin: miter; stroke: rgb(248, 251, 247); opacity: 1; stroke-miterlimit: 10;" d="M 258.136032 150.723145 C 261.599731 150.465149 265.089005 150.572327 268.55127 150.862061 C 267.705856 152.755875 265.740402 152.679474 263.999985 152.806503 C 263.997635 155.551804 263.998291 158.298508 263.999939 161.046402 C 263.30191 161.002853 261.905823 160.915771 261.207779 160.872223 C 261.255569 158.156189 261.375107 155.442505 261.37204 152.728073 C 260.337967 152.700272 258.269836 152.644653 257.235764 152.616837 C 257.460831 152.143417 257.910965 151.196579 258.136032 150.723145 Z M 258.136032 150.723145 " transform="matrix(1, 0, 0, 1, 0, 0)"/>
<path style="stroke: none; fill-rule: nonzero; fill: rgb(248, 251, 247); opacity: 1;" d="M 258.136032 150.723145 C 261.599731 150.465149 265.089005 150.572327 268.55127 150.862061 C 267.705856 152.755875 265.740402 152.679474 263.999985 152.806503 C 263.997635 155.551804 263.998291 158.298508 263.999939 161.046402 C 263.30191 161.002853 261.905823 160.915771 261.207779 160.872223 C 261.255569 158.156189 261.375107 155.442505 261.37204 152.728073 C 260.337967 152.700272 258.269836 152.644653 257.235764 152.616837 C 257.460831 152.143417 257.910965 151.196579 258.136032 150.723145 Z M 258.136032 150.723145 "/>
<path style="fill: none; stroke-width: 0.1; stroke-linecap: butt; stroke-linejoin: miter; stroke: rgb(3, 2, 0); opacity: 1; stroke-miterlimit: 10;" d="M 101.626755 152.734238 C 102.918839 152.792252 104.207382 152.888153 105.497314 153.012711 C 104.753616 153.837112 103.995209 154.648376 103.222107 155.446518 C 102.823257 154.768448 102.025589 153.412308 101.626755 152.734238 Z M 101.626755 152.734238 " transform="matrix(1, 0, 0, 1, 0, 0)"/>
<path style="stroke: none; fill-rule: nonzero; fill: rgb(3, 2, 0); opacity: 1;" d="M 101.626755 152.734238 C 102.918839 152.792252 104.207382 152.888153 105.497314 153.012711 C 104.753616 153.837112 103.995209 154.648376 103.222107 155.446518 C 102.823257 154.768448 102.025589 153.412308 101.626755 152.734238 Z M 101.626755 152.734238 "/>
<path style="fill: none; stroke-width: 0.1; stroke-linecap: butt; stroke-linejoin: miter; stroke: rgb(3, 2, 0); opacity: 1; stroke-miterlimit: 10;" d="M 141.417038 153.364639 C 142.183929 154.464157 142.85701 155.625351 143.462402 156.826187 C 142.717865 156.885193 141.22879 157.003204 140.484253 157.06221 C 140.777817 155.825592 141.077148 154.585861 141.417038 153.364639 Z M 141.417038 153.364639 " transform="matrix(1, 0, 0, 1, 0, 0)"/>
<path style="stroke: none; fill-rule: nonzero; fill: rgb(3, 2, 0); opacity: 1;" d="M 141.417038 153.364639 C 142.183929 154.464157 142.85701 155.625351 143.462402 156.826187 C 142.717865 156.885193 141.22879 157.003204 140.484253 157.06221 C 140.777817 155.825592 141.077148 154.585861 141.417038 153.364639 Z M 141.417038 153.364639 "/>
</g>
</svg>